<?xml version="1.0" encoding="utf-8"?>
<!-- Generator: Adobe Illustrator 23.0.0, SVG Export Plug-In . SVG Version: 6.00 Build 0)  -->
<svg version="1.1" id="레이어_1" xmlns="http://www.w3.org/2000/svg" xmlns:xlink="http://www.w3.org/1999/xlink" x="0px"
	 y="0px" viewBox="0 0 231.72 161.81" style="enable-background:new 0 0 231.72 161.81;" xml:space="preserve">
<style type="text/css">
	.st0{fill:#FFFFFF;}
	.st1{fill:#6DB931;}
</style>
<path class="st0" d="M59.69,112.55c0,14.2-8.33,22.09-21.88,22.09c-2.88,0-4.8-0.21-7.37-1.71c-2.88-1.71-4.59-4.91-3.84-9.29
	c0.64-3.74,3.74-6.4,6.72-6.4c0.43,0,1.39-0.11,1.81-0.21c1.39-0.32,2.99-1.39,2.99-4.48V59.94c0-7.36,5.02-10.67,10.78-10.67
	s10.78,3.31,10.78,10.67V112.55z"/>
<path class="st1" d="M48.91,25.03c5.98,0,11.1,2.77,11.1,9.82c0,7.04-5.12,9.82-11.1,9.82c-5.98,0-11.1-2.77-11.1-9.82
	C37.81,27.81,42.93,25.03,48.91,25.03z"/>
<path class="st0" d="M92.78,112.55c0,14.2-8.33,22.09-21.88,22.09c-2.88,0-4.8-0.21-7.37-1.71c-2.88-1.71-4.59-4.91-3.84-9.29
	c0.64-3.74,3.74-6.4,6.72-6.4c0.43,0,1.39-0.11,1.81-0.21c1.39-0.32,2.99-1.39,2.99-4.48V59.94c0-7.36,5.02-10.67,10.78-10.67
	s10.78,3.31,10.78,10.67V112.55z M81.99,25.03c5.98,0,11.1,2.77,11.1,9.82c0,7.04-5.12,9.82-11.1,9.82c-5.98,0-11.1-2.77-11.1-9.82
	C70.89,27.81,76.02,25.03,81.99,25.03z"/>
<path class="st0" d="M144.01,115.22l-0.85-4.48c-4.06,3.84-9.82,6.3-16.22,6.3h-2.35c-8.86,0-21.88-4.8-21.88-21.56
	c0-16.12,12.27-21.24,26.15-21.24h10.99c-0.21-6.3-4.7-8-9.82-8c-2.46,0-4.59,0.43-7.15,1.17c-1.71,0.53-3.1,1.28-5.02,2.13
	c-3.84,1.92-9.5,0.43-11.42-3.84c-2.03-4.27-0.32-8.65,3.42-11.42c5.66-4.16,14.62-5.76,21.88-5.76c15.48,0,29.14,5.44,29.14,28.5
	v38.21H144.01z M139.84,89.93h-9.71c-4.06,0-6.3,2.03-6.3,5.44c0,3.52,2.24,5.23,5.98,5.23h1.49c3.95,0,8.54-2.35,8.54-6.83V89.93z"
	/>
<path class="st0" d="M171.65,35.71c0-7.36,5.02-10.67,10.99-10.67c5.98,0,10.99,3.31,10.99,10.67v79.52h-21.99V35.71z"/>
</svg>
